<?xml version="1.0" encoding="UTF-8" standalone="no"?>
<!DOCTYPE svg PUBLIC "-//W3C//DTD SVG 1.1//EN"
 "http://www.w3.org/Graphics/SVG/1.1/DTD/svg11.dtd">
<!-- Generated by graphviz version 2.38.0 (20140413.2041)
 -->
<!-- Title: finite_state_machine Pages: 1 -->
<svg width="364pt" height="291pt"
 viewBox="0.00 0.00 363.60 291.00" xmlns="http://www.w3.org/2000/svg" xmlns:xlink="http://www.w3.org/1999/xlink">
<g id="graph0" class="graph" transform="scale(1 1) rotate(0) translate(4 287)">
<title>finite_state_machine</title>
<polygon fill="white" stroke="none" points="-4,4 -4,-287 359.596,-287 359.596,4 -4,4"/>
<!-- defaultS -->
<g id="node1" class="node"><title>defaultS</title>
<ellipse fill="none" stroke="black" cx="152.596" cy="-265" rx="40.0939" ry="18"/>
<text text-anchor="middle" x="152.596" y="-261.3" font-family="Times New Roman,serif" font-size="14.00">defaultS</text>
</g>
<!-- laserg1S -->
<g id="node2" class="node"><title>laserg1S</title>
<ellipse fill="none" stroke="black" cx="41.5963" cy="-192" rx="41.6928" ry="18"/>
<text text-anchor="middle" x="41.5963" y="-188.3" font-family="Times New Roman,serif" font-size="14.00">laserg1S</text>
</g>
<!-- defaultS&#45;&gt;laserg1S -->
<g id="edge1" class="edge"><title>defaultS&#45;&gt;laserg1S</title>
<path fill="none" stroke="black" d="M130.401,-249.803C113.872,-239.23 91.0901,-224.658 72.7396,-212.921"/>
<polygon fill="black" stroke="black" points="74.4441,-209.856 64.134,-207.416 70.6722,-215.753 74.4441,-209.856"/>
</g>
<!-- laserg2S -->
<g id="node3" class="node"><title>laserg2S</title>
<ellipse fill="none" stroke="black" cx="124.596" cy="-105" rx="41.6928" ry="18"/>
<text text-anchor="middle" x="124.596" y="-101.3" font-family="Times New Roman,serif" font-size="14.00">laserg2S</text>
</g>
<!-- laserg1S&#45;&gt;laserg2S -->
<g id="edge2" class="edge"><title>laserg1S&#45;&gt;laserg2S</title>
<path fill="none" stroke="black" d="M24.14,-175.48C14.7921,-165.265 6.67698,-151.83 14.5963,-141 28.1881,-122.412 51.739,-113.459 73.5707,-109.237"/>
<polygon fill="black" stroke="black" points="74.1401,-112.69 83.4386,-107.612 73.0028,-105.783 74.1401,-112.69"/>
<text text-anchor="middle" x="76.5963" y="-144.8" font-family="Times New Roman,serif" font-size="14.00">Start Pulse at gate one</text>
</g>
<!-- laserg2S&#45;&gt;defaultS -->
<g id="edge4" class="edge"><title>laserg2S&#45;&gt;defaultS</title>
<path fill="none" stroke="black" d="M132.367,-122.787C134.708,-128.463 137.061,-134.908 138.596,-141 146.696,-173.132 150.117,-211.176 151.558,-236.356"/>
<polygon fill="black" stroke="black" points="148.076,-236.817 152.076,-246.628 155.068,-236.464 148.076,-236.817"/>
<text text-anchor="middle" x="192.096" y="-188.3" font-family="Times New Roman,serif" font-size="14.00">Reset Detected</text>
</g>
<!-- waitrS -->
<g id="node4" class="node"><title>waitrS</title>
<ellipse fill="none" stroke="black" cx="194.596" cy="-18" rx="33.5952" ry="18"/>
<text text-anchor="middle" x="194.596" y="-14.3" font-family="Times New Roman,serif" font-size="14.00">waitrS</text>
</g>
<!-- laserg2S&#45;&gt;waitrS -->
<g id="edge3" class="edge"><title>laserg2S&#45;&gt;waitrS</title>
<path fill="none" stroke="black" d="M120.783,-87.0031C119.427,-76.6961 119.502,-63.7059 125.596,-54 132.348,-43.2465 143.522,-35.6623 154.932,-30.3731"/>
<polygon fill="black" stroke="black" points="156.56,-33.4883 164.479,-26.4508 153.9,-27.0134 156.56,-33.4883"/>
<text text-anchor="middle" x="188.596" y="-57.8" font-family="Times New Roman,serif" font-size="14.00">Stop Pulse at gate two</text>
</g>
<!-- waitrS&#45;&gt;defaultS -->
<g id="edge5" class="edge"><title>waitrS&#45;&gt;defaultS</title>
<path fill="none" stroke="black" d="M221.788,-28.6956C233.123,-34.2425 245.133,-42.4468 251.596,-54 285.564,-114.718 275.022,-150.724 238.596,-210 228.005,-227.236 209.629,-239.87 192.576,-248.564"/>
<polygon fill="black" stroke="black" points="190.813,-245.528 183.295,-252.994 193.828,-251.845 190.813,-245.528"/>
<text text-anchor="middle" x="313.096" y="-144.8" font-family="Times New Roman,serif" font-size="14.00">Reset Detected</text>
</g>
</g>
</svg>
